<?xml version="1.0" encoding="UTF-8" standalone="no"?>
<!DOCTYPE svg PUBLIC "-//W3C//DTD SVG 1.1//EN"
 "http://www.w3.org/Graphics/SVG/1.1/DTD/svg11.dtd">
<!-- Generated by graphviz version 2.40.1 (20161225.0304)
 -->
<!-- Title: G Pages: 1 -->
<svg width="310pt" height="268pt"
 viewBox="0.00 0.00 309.98 267.98" xmlns="http://www.w3.org/2000/svg" xmlns:xlink="http://www.w3.org/1999/xlink">
<g id="graph0" class="graph" transform="scale(1 1) rotate(0) translate(7.992 259.992)">
<title>G</title>
<polygon fill="#eeeeff" stroke="transparent" points="-7.992,7.992 -7.992,-259.992 301.992,-259.992 301.992,7.992 -7.992,7.992"/>
<!-- e0.js -->
<g id="node1" class="node">
<title>e0.js</title>
<polygon fill="none" stroke="#0c821d" stroke-width="4" points="270,-246 216,-246 216,-210 270,-210 270,-246"/>
<text text-anchor="middle" x="243" y="-225.6" font-family="Fira Code" font-size="12.00" fill="#0c821d">e0.js</text>
</g>
<!-- e1.js -->
<g id="node2" class="node">
<title>e1.js</title>
<polygon fill="none" stroke="#0c821d" stroke-width="4" points="54,-132 0,-132 0,-96 54,-96 54,-132"/>
<text text-anchor="middle" x="27" y="-111.6" font-family="Fira Code" font-size="12.00" fill="#0c821d">e1.js</text>
</g>
<!-- e10.js -->
<g id="node3" class="node">
<title>e10.js</title>
<polygon fill="none" stroke="#0c821d" stroke-width="4" points="215.7003,-186 156.2997,-186 156.2997,-150 215.7003,-150 215.7003,-186"/>
<text text-anchor="middle" x="186" y="-165.6" font-family="Fira Code" font-size="12.00" fill="#0c821d">e10.js</text>
</g>
<!-- e2.js -->
<g id="node4" class="node">
<title>e2.js</title>
<polygon fill="none" stroke="#0c821d" stroke-width="4" points="132,-192 78,-192 78,-156 132,-156 132,-192"/>
<text text-anchor="middle" x="105" y="-171.6" font-family="Fira Code" font-size="12.00" fill="#0c821d">e2.js</text>
</g>
<!-- e3.js -->
<g id="node5" class="node">
<title>e3.js</title>
<polygon fill="none" stroke="#0c821d" stroke-width="4" points="228,-96 174,-96 174,-60 228,-60 228,-96"/>
<text text-anchor="middle" x="201" y="-75.6" font-family="Fira Code" font-size="12.00" fill="#0c821d">e3.js</text>
</g>
<!-- e4.js -->
<g id="node6" class="node">
<title>e4.js</title>
<polygon fill="none" stroke="#0c821d" stroke-width="4" points="90,-66 36,-66 36,-30 90,-30 90,-66"/>
<text text-anchor="middle" x="63" y="-45.6" font-family="Fira Code" font-size="12.00" fill="#0c821d">e4.js</text>
</g>
<!-- e5.js -->
<g id="node7" class="node">
<title>e5.js</title>
<polygon fill="none" stroke="#0c821d" stroke-width="4" points="54,-192 0,-192 0,-156 54,-156 54,-192"/>
<text text-anchor="middle" x="27" y="-171.6" font-family="Fira Code" font-size="12.00" fill="#0c821d">e5.js</text>
</g>
<!-- e6.js -->
<g id="node8" class="node">
<title>e6.js</title>
<polygon fill="none" stroke="#0c821d" stroke-width="4" points="192,-252 138,-252 138,-216 192,-216 192,-252"/>
<text text-anchor="middle" x="165" y="-231.6" font-family="Fira Code" font-size="12.00" fill="#0c821d">e6.js</text>
</g>
<!-- e7.js -->
<g id="node9" class="node">
<title>e7.js</title>
<polygon fill="none" stroke="#0c821d" stroke-width="4" points="114,-252 60,-252 60,-216 114,-216 114,-252"/>
<text text-anchor="middle" x="87" y="-231.6" font-family="Fira Code" font-size="12.00" fill="#0c821d">e7.js</text>
</g>
<!-- e8.js -->
<g id="node10" class="node">
<title>e8.js</title>
<polygon fill="none" stroke="#0c821d" stroke-width="4" points="174,-36 120,-36 120,0 174,0 174,-36"/>
<text text-anchor="middle" x="147" y="-15.6" font-family="Fira Code" font-size="12.00" fill="#0c821d">e8.js</text>
</g>
<!-- e9.js -->
<g id="node11" class="node">
<title>e9.js</title>
<polygon fill="none" stroke="#0c821d" stroke-width="4" points="252,-36 198,-36 198,0 252,0 252,-36"/>
<text text-anchor="middle" x="225" y="-15.6" font-family="Fira Code" font-size="12.00" fill="#0c821d">e9.js</text>
</g>
<!-- eN.js -->
<g id="node12" class="node">
<title>eN.js</title>
<polygon fill="none" stroke="#0c821d" stroke-width="4" points="294,-156 240,-156 240,-120 294,-120 294,-156"/>
<text text-anchor="middle" x="267" y="-135.6" font-family="Fira Code" font-size="12.00" fill="#0c821d">eN.js</text>
</g>
<!-- index.js -->
<g id="node13" class="node">
<title>index.js</title>
<polygon fill="none" stroke="#0c821d" stroke-width="4" points="151.6011,-126 78.3989,-126 78.3989,-90 151.6011,-90 151.6011,-126"/>
<text text-anchor="middle" x="115" y="-105.6" font-family="Fira Code" font-size="12.00" fill="#0c821d">index.js</text>
</g>
</g>
</svg>
