<?xml version="1.0" encoding="UTF-8" standalone="no"?>
<!DOCTYPE svg PUBLIC "-//W3C//DTD SVG 1.1//EN"
 "http://www.w3.org/Graphics/SVG/1.1/DTD/svg11.dtd">
<!-- Generated by graphviz version 2.40.1 (20161225.0304)
 -->
<!-- Title: G Pages: 1 -->
<svg width="834pt" height="397pt"
 viewBox="0.00 0.00 833.98 396.98" xmlns="http://www.w3.org/2000/svg" xmlns:xlink="http://www.w3.org/1999/xlink">
<g id="graph0" class="graph" transform="scale(1 1) rotate(0) translate(7.992 388.992)">
<title>G</title>
<polygon fill="#eeeeff" stroke="transparent" points="-7.992,7.992 -7.992,-388.992 825.992,-388.992 825.992,7.992 -7.992,7.992"/>
<!-- e&#45;n.js -->
<g id="node1" class="node">
<title>e&#45;n.js</title>
<polygon fill="none" stroke="#242424" stroke-width="4" points="408.7003,-266 349.2997,-266 349.2997,-230 408.7003,-230 408.7003,-266"/>
<text text-anchor="middle" x="379" y="-245.6" font-family="Fira Code" font-size="12.00" fill="#242424">e&#45;n.js</text>
</g>
<!-- Ⓜ katsu&#45;curry/katsu&#45;curry.js -->
<g id="node2" class="node">
<title>Ⓜ katsu&#45;curry/katsu&#45;curry.js</title>
<polygon fill="none" stroke="#0c821d" stroke-width="4" points="514.4004,-36 291.5996,-36 291.5996,0 514.4004,0 514.4004,-36"/>
<text text-anchor="middle" x="403" y="-16.8" font-family="Fira Code" font-size="12.00" fill="#0c821d">Ⓜ katsu&#45;curry/katsu&#45;curry.js</text>
</g>
<!-- e&#45;n.js&#45;&gt;Ⓜ katsu&#45;curry/katsu&#45;curry.js -->
<g id="edge1" class="edge">
<title>e&#45;n.js&#45;&gt;Ⓜ katsu&#45;curry/katsu&#45;curry.js</title>
<path fill="none" stroke="#242424" d="M380.8832,-229.9523C385.044,-190.0788 395.0461,-94.2253 400.0479,-46.2908"/>
<polygon fill="#242424" stroke="#242424" points="403.5355,-46.5914 401.0923,-36.2821 396.5733,-45.8649 403.5355,-46.5914"/>
</g>
<!-- e0.js -->
<g id="node3" class="node">
<title>e0.js</title>
<polygon fill="none" stroke="#242424" stroke-width="4" points="54,-151 0,-151 0,-115 54,-115 54,-151"/>
<text text-anchor="middle" x="27" y="-130.6" font-family="Fira Code" font-size="12.00" fill="#242424">e0.js</text>
</g>
<!-- e&#45;n.js&#45;&gt;e0.js -->
<g id="edge2" class="edge">
<title>e&#45;n.js&#45;&gt;e0.js</title>
<path fill="none" stroke="#242424" d="M349.2483,-240.6338C294.162,-226.621 172.6971,-193.9709 63.791,-151.0186"/>
<polygon fill="#242424" stroke="#242424" points="64.8878,-147.688 54.3025,-147.2369 62.2961,-154.1906 64.8878,-147.688"/>
</g>
<!-- e1.js -->
<g id="node4" class="node">
<title>e1.js</title>
<polygon fill="none" stroke="#242424" stroke-width="4" points="126,-151 72,-151 72,-115 126,-115 126,-151"/>
<text text-anchor="middle" x="99" y="-130.6" font-family="Fira Code" font-size="12.00" fill="#242424">e1.js</text>
</g>
<!-- e&#45;n.js&#45;&gt;e1.js -->
<g id="edge3" class="edge">
<title>e&#45;n.js&#45;&gt;e1.js</title>
<path fill="none" stroke="#242424" d="M349.3665,-237.1528C304.7778,-220.6305 217.7235,-187.5937 135.2605,-150.949"/>
<polygon fill="#242424" stroke="#242424" points="136.5662,-147.699 126.0084,-146.8134 133.7095,-154.0896 136.5662,-147.699"/>
</g>
<!-- e10.js -->
<g id="node5" class="node">
<title>e10.js</title>
<polygon fill="none" stroke="#242424" stroke-width="4" points="203.7003,-151 144.2997,-151 144.2997,-115 203.7003,-115 203.7003,-151"/>
<text text-anchor="middle" x="174" y="-130.6" font-family="Fira Code" font-size="12.00" fill="#242424">e10.js</text>
</g>
<!-- e&#45;n.js&#45;&gt;e10.js -->
<g id="edge4" class="edge">
<title>e&#45;n.js&#45;&gt;e10.js</title>
<path fill="none" stroke="#242424" d="M349.1912,-231.278C313.1334,-211.0504 252.3487,-176.9517 212.7029,-154.7114"/>
<polygon fill="#242424" stroke="#242424" points="214.2786,-151.5822 203.8447,-149.7422 210.8538,-157.6872 214.2786,-151.5822"/>
</g>
<!-- e2.js -->
<g id="node6" class="node">
<title>e2.js</title>
<polygon fill="none" stroke="#242424" stroke-width="4" points="276,-151 222,-151 222,-115 276,-115 276,-151"/>
<text text-anchor="middle" x="249" y="-130.6" font-family="Fira Code" font-size="12.00" fill="#242424">e2.js</text>
</g>
<!-- e&#45;n.js&#45;&gt;e2.js -->
<g id="edge5" class="edge">
<title>e&#45;n.js&#45;&gt;e2.js</title>
<path fill="none" stroke="#242424" d="M358.4011,-229.7779C336.4361,-210.3473 301.5134,-179.4542 277.0485,-157.8121"/>
<polygon fill="#242424" stroke="#242424" points="279.3115,-155.1411 269.5025,-151.1368 274.6735,-160.3841 279.3115,-155.1411"/>
</g>
<!-- e3.js -->
<g id="node7" class="node">
<title>e3.js</title>
<polygon fill="none" stroke="#242424" stroke-width="4" points="348,-151 294,-151 294,-115 348,-115 348,-151"/>
<text text-anchor="middle" x="321" y="-130.6" font-family="Fira Code" font-size="12.00" fill="#242424">e3.js</text>
</g>
<!-- e&#45;n.js&#45;&gt;e3.js -->
<g id="edge6" class="edge">
<title>e&#45;n.js&#45;&gt;e3.js</title>
<path fill="none" stroke="#242424" d="M369.8097,-229.7779C360.3493,-211.0202 345.5013,-181.5802 334.6643,-160.0931"/>
<polygon fill="#242424" stroke="#242424" points="337.7755,-158.4894 330.1473,-151.1368 331.5255,-161.6417 337.7755,-158.4894"/>
</g>
<!-- e4.js -->
<g id="node8" class="node">
<title>e4.js</title>
<polygon fill="none" stroke="#242424" stroke-width="4" points="458,-151 404,-151 404,-115 458,-115 458,-151"/>
<text text-anchor="middle" x="431" y="-130.6" font-family="Fira Code" font-size="12.00" fill="#242424">e4.js</text>
</g>
<!-- e&#45;n.js&#45;&gt;e4.js -->
<g id="edge7" class="edge">
<title>e&#45;n.js&#45;&gt;e4.js</title>
<path fill="none" stroke="#242424" d="M387.2396,-229.7779C395.6833,-211.1043 408.914,-181.844 418.6183,-160.3826"/>
<polygon fill="#242424" stroke="#242424" points="421.868,-161.6907 422.799,-151.1368 415.4897,-158.8066 421.868,-161.6907"/>
</g>
<!-- e5.js -->
<g id="node9" class="node">
<title>e5.js</title>
<polygon fill="none" stroke="#242424" stroke-width="4" points="530,-151 476,-151 476,-115 530,-115 530,-151"/>
<text text-anchor="middle" x="503" y="-130.6" font-family="Fira Code" font-size="12.00" fill="#242424">e5.js</text>
</g>
<!-- e&#45;n.js&#45;&gt;e5.js -->
<g id="edge8" class="edge">
<title>e&#45;n.js&#45;&gt;e5.js</title>
<path fill="none" stroke="#242424" d="M398.6482,-229.7779C419.5087,-210.4314 452.6221,-179.7214 475.9424,-158.0937"/>
<polygon fill="#242424" stroke="#242424" points="478.4916,-160.5031 483.4438,-151.1368 473.7316,-155.3706 478.4916,-160.5031"/>
</g>
<!-- e6.js -->
<g id="node10" class="node">
<title>e6.js</title>
<polygon fill="none" stroke="#242424" stroke-width="4" points="602,-151 548,-151 548,-115 602,-115 602,-151"/>
<text text-anchor="middle" x="575" y="-130.6" font-family="Fira Code" font-size="12.00" fill="#242424">e6.js</text>
</g>
<!-- e&#45;n.js&#45;&gt;e6.js -->
<g id="edge9" class="edge">
<title>e&#45;n.js&#45;&gt;e6.js</title>
<path fill="none" stroke="#242424" d="M408.7682,-230.534C443.6178,-210.0865 501.3207,-176.2302 538.7479,-154.2704"/>
<polygon fill="#242424" stroke="#242424" points="540.9464,-157.0385 547.8001,-148.9591 537.4039,-151.001 540.9464,-157.0385"/>
</g>
<!-- e7.js -->
<g id="node11" class="node">
<title>e7.js</title>
<polygon fill="none" stroke="#242424" stroke-width="4" points="674,-151 620,-151 620,-115 674,-115 674,-151"/>
<text text-anchor="middle" x="647" y="-130.6" font-family="Fira Code" font-size="12.00" fill="#242424">e7.js</text>
</g>
<!-- e&#45;n.js&#45;&gt;e7.js -->
<g id="edge10" class="edge">
<title>e&#45;n.js&#45;&gt;e7.js</title>
<path fill="none" stroke="#242424" d="M408.9434,-236.2341C451.6758,-219.2802 532.716,-186.5264 610.501,-151.0946"/>
<polygon fill="#242424" stroke="#242424" points="612.332,-154.1058 619.968,-146.7613 609.4185,-147.7409 612.332,-154.1058"/>
</g>
<!-- e8.js -->
<g id="node12" class="node">
<title>e8.js</title>
<polygon fill="none" stroke="#242424" stroke-width="4" points="746,-151 692,-151 692,-115 746,-115 746,-151"/>
<text text-anchor="middle" x="719" y="-130.6" font-family="Fira Code" font-size="12.00" fill="#242424">e8.js</text>
</g>
<!-- e&#45;n.js&#45;&gt;e8.js -->
<g id="edge11" class="edge">
<title>e&#45;n.js&#45;&gt;e8.js</title>
<path fill="none" stroke="#242424" d="M408.8859,-240.1248C462.3876,-225.6743 577.9508,-192.8597 682.2716,-151.0175"/>
<polygon fill="#242424" stroke="#242424" points="683.73,-154.203 691.6844,-147.2046 681.1019,-147.7151 683.73,-154.203"/>
</g>
<!-- e9.js -->
<g id="node13" class="node">
<title>e9.js</title>
<polygon fill="none" stroke="#242424" stroke-width="4" points="818,-151 764,-151 764,-115 818,-115 818,-151"/>
<text text-anchor="middle" x="791" y="-130.6" font-family="Fira Code" font-size="12.00" fill="#242424">e9.js</text>
</g>
<!-- e&#45;n.js&#45;&gt;e9.js -->
<g id="edge12" class="edge">
<title>e&#45;n.js&#45;&gt;e9.js</title>
<path fill="none" stroke="#242424" d="M408.904,-242.5226C471.9145,-230.5113 622.6959,-199.2895 754.3078,-150.8855"/>
<polygon fill="#242424" stroke="#242424" points="755.5987,-154.1396 763.7493,-147.3707 753.1565,-147.5795 755.5987,-154.1396"/>
</g>
<!-- e0.js&#45;&gt;Ⓜ katsu&#45;curry/katsu&#45;curry.js -->
<g id="edge13" class="edge">
<title>e0.js&#45;&gt;Ⓜ katsu&#45;curry/katsu&#45;curry.js</title>
<path fill="none" stroke="#242424" d="M54.2794,-118.7045C57.1903,-117.3769 60.1343,-116.1141 63,-115 146.2945,-82.6184 244.8148,-55.6955 314.3027,-38.4956"/>
<polygon fill="#242424" stroke="#242424" points="315.4634,-41.8146 324.3391,-36.029 313.7927,-35.0169 315.4634,-41.8146"/>
</g>
<!-- e1.js&#45;&gt;Ⓜ katsu&#45;curry/katsu&#45;curry.js -->
<g id="edge14" class="edge">
<title>e1.js&#45;&gt;Ⓜ katsu&#45;curry/katsu&#45;curry.js</title>
<path fill="none" stroke="#242424" d="M126.3624,-118.9075C129.2571,-117.5404 132.1747,-116.2127 135,-115 202.9874,-85.8168 282.9813,-57.6332 337.7631,-39.2371"/>
<polygon fill="#242424" stroke="#242424" points="338.9762,-42.522 347.3499,-36.0312 336.7561,-35.8834 338.9762,-42.522"/>
</g>
<!-- e10.js&#45;&gt;Ⓜ katsu&#45;curry/katsu&#45;curry.js -->
<g id="edge15" class="edge">
<title>e10.js&#45;&gt;Ⓜ katsu&#45;curry/katsu&#45;curry.js</title>
<path fill="none" stroke="#242424" d="M203.9378,-117.9658C243.182,-98.258 312.3707,-63.5125 357.9544,-40.6212"/>
<polygon fill="#242424" stroke="#242424" points="359.6563,-43.6831 367.022,-36.0676 356.5148,-37.4276 359.6563,-43.6831"/>
</g>
<!-- e2.js&#45;&gt;Ⓜ katsu&#45;curry/katsu&#45;curry.js -->
<g id="edge16" class="edge">
<title>e2.js&#45;&gt;Ⓜ katsu&#45;curry/katsu&#45;curry.js</title>
<path fill="none" stroke="#242424" d="M273.4018,-114.7779C299.6471,-95.1791 341.5093,-63.9184 370.5233,-42.2521"/>
<polygon fill="#242424" stroke="#242424" points="372.7941,-44.9246 378.7124,-36.1368 368.6057,-39.3158 372.7941,-44.9246"/>
</g>
<!-- e3.js&#45;&gt;Ⓜ katsu&#45;curry/katsu&#45;curry.js -->
<g id="edge17" class="edge">
<title>e3.js&#45;&gt;Ⓜ katsu&#45;curry/katsu&#45;curry.js</title>
<path fill="none" stroke="#242424" d="M333.9931,-114.7779C347.4881,-95.852 368.7374,-66.0513 384.0923,-44.5169"/>
<polygon fill="#242424" stroke="#242424" points="387.1117,-46.311 390.0676,-36.1368 381.4122,-42.247 387.1117,-46.311"/>
</g>
<!-- e4.js&#45;&gt;Ⓜ katsu&#45;curry/katsu&#45;curry.js -->
<g id="edge18" class="edge">
<title>e4.js&#45;&gt;Ⓜ katsu&#45;curry/katsu&#45;curry.js</title>
<path fill="none" stroke="#242424" d="M426.5633,-114.7779C422.0577,-96.2726 415.0206,-67.3704 409.8088,-45.9646"/>
<polygon fill="#242424" stroke="#242424" points="413.1823,-45.025 407.4159,-36.1368 406.381,-46.681 413.1823,-45.025"/>
</g>
<!-- e5.js&#45;&gt;Ⓜ katsu&#45;curry/katsu&#45;curry.js -->
<g id="edge19" class="edge">
<title>e5.js&#45;&gt;Ⓜ katsu&#45;curry/katsu&#45;curry.js</title>
<path fill="none" stroke="#242424" d="M487.1547,-114.7779C470.5511,-95.6838 444.3223,-65.5206 425.5605,-43.9446"/>
<polygon fill="#242424" stroke="#242424" points="427.9741,-41.3863 418.7712,-36.1368 422.6919,-45.9796 427.9741,-41.3863"/>
</g>
<!-- e6.js&#45;&gt;Ⓜ katsu&#45;curry/katsu&#45;curry.js -->
<g id="edge20" class="edge">
<title>e6.js&#45;&gt;Ⓜ katsu&#45;curry/katsu&#45;curry.js</title>
<path fill="none" stroke="#242424" d="M547.7461,-114.7779C518.1814,-95.0108 470.8739,-63.3808 438.4414,-41.6963"/>
<polygon fill="#242424" stroke="#242424" points="440.3848,-38.7855 430.1264,-36.1368 436.4941,-44.6046 440.3848,-38.7855"/>
</g>
<!-- e7.js&#45;&gt;Ⓜ katsu&#45;curry/katsu&#45;curry.js -->
<g id="edge21" class="edge">
<title>e7.js&#45;&gt;Ⓜ katsu&#45;curry/katsu&#45;curry.js</title>
<path fill="none" stroke="#242424" d="M619.9123,-119.3572C616.9109,-117.875 613.8943,-116.3981 611,-115 556.7976,-88.8168 494.1309,-59.7558 451.8664,-40.3321"/>
<polygon fill="#242424" stroke="#242424" points="453.1879,-37.0876 442.6396,-36.0958 450.2671,-43.4491 453.1879,-37.0876"/>
</g>
<!-- e8.js&#45;&gt;Ⓜ katsu&#45;curry/katsu&#45;curry.js -->
<g id="edge22" class="edge">
<title>e8.js&#45;&gt;Ⓜ katsu&#45;curry/katsu&#45;curry.js</title>
<path fill="none" stroke="#242424" d="M691.6546,-118.8674C688.7566,-117.5081 685.8336,-116.1932 683,-115 612.4083,-85.2733 529.2185,-57.3143 471.9618,-39.1216"/>
<polygon fill="#242424" stroke="#242424" points="472.8825,-35.742 462.2925,-36.0639 470.7718,-42.4162 472.8825,-35.742"/>
</g>
<!-- e9.js&#45;&gt;Ⓜ katsu&#45;curry/katsu&#45;curry.js -->
<g id="edge23" class="edge">
<title>e9.js&#45;&gt;Ⓜ katsu&#45;curry/katsu&#45;curry.js</title>
<path fill="none" stroke="#242424" d="M763.7309,-118.6779C760.818,-117.3555 757.8707,-116.1011 755,-115 669.2223,-82.0974 567.7467,-55.3597 495.8413,-38.3523"/>
<polygon fill="#242424" stroke="#242424" points="496.4314,-34.8957 485.8961,-36.0174 494.8315,-41.7104 496.4314,-34.8957"/>
</g>
<!-- index.js -->
<g id="node14" class="node">
<title>index.js</title>
<polygon fill="none" stroke="#242424" stroke-width="4" points="444.6011,-381 371.3989,-381 371.3989,-345 444.6011,-345 444.6011,-381"/>
<text text-anchor="middle" x="408" y="-360.6" font-family="Fira Code" font-size="12.00" fill="#242424">index.js</text>
</g>
<!-- index.js&#45;&gt;e&#45;n.js -->
<g id="edge24" class="edge">
<title>index.js&#45;&gt;e&#45;n.js</title>
<path fill="none" stroke="#242424" d="M403.4049,-344.7779C398.7383,-326.2726 391.4499,-297.3704 386.0519,-275.9646"/>
<polygon fill="#242424" stroke="#242424" points="389.4127,-274.9774 383.5736,-266.1368 382.6251,-276.6891 389.4127,-274.9774"/>
</g>
<!-- index.js&#45;&gt;e0.js -->
<g id="edge25" class="edge">
<title>index.js&#45;&gt;e0.js</title>
<path fill="none" stroke="#242424" d="M371.0831,-347.075C330.7534,-329.1659 264.7331,-298.3342 211,-266 154.4084,-231.9457 93.0679,-185.4893 57.4417,-157.4568"/>
<polygon fill="#242424" stroke="#242424" points="59.3998,-154.5432 49.3848,-151.086 55.0579,-160.034 59.3998,-154.5432"/>
</g>
<!-- index.js&#45;&gt;e1.js -->
<g id="edge26" class="edge">
<title>index.js&#45;&gt;e1.js</title>
<path fill="none" stroke="#242424" d="M378.4303,-344.9664C348.0846,-326.1501 299.8109,-295.3515 260,-266 211.7115,-230.3982 158.5801,-185.2513 127.0427,-157.7744"/>
<polygon fill="#242424" stroke="#242424" points="129.3384,-155.1325 119.506,-151.186 124.7313,-160.4027 129.3384,-155.1325"/>
</g>
<!-- index.js&#45;&gt;e10.js -->
<g id="edge27" class="edge">
<title>index.js&#45;&gt;e10.js</title>
<path fill="none" stroke="#242424" d="M386.5997,-344.9462C364.2469,-325.8621 328.4096,-294.6207 299,-266 262.0028,-229.9952 221.4701,-185.9518 196.8859,-158.6834"/>
<polygon fill="#242424" stroke="#242424" points="199.3783,-156.2205 190.0906,-151.1224 194.1719,-160.8996 199.3783,-156.2205"/>
</g>
<!-- index.js&#45;&gt;e2.js -->
<g id="edge28" class="edge">
<title>index.js&#45;&gt;e2.js</title>
<path fill="none" stroke="#242424" d="M390.9462,-344.8346C373.5988,-325.9133 346.4341,-295.0325 326,-266 301.4109,-231.0642 277.4578,-187.7994 262.9647,-160.2922"/>
<polygon fill="#242424" stroke="#242424" points="265.9789,-158.503 258.2473,-151.2592 259.7741,-161.7435 265.9789,-158.503"/>
</g>
<!-- index.js&#45;&gt;e3.js -->
<g id="edge29" class="edge">
<title>index.js&#45;&gt;e3.js</title>
<path fill="none" stroke="#242424" d="M391.2905,-344.8716C375.3462,-326.4619 352.0276,-296.4079 340,-266 326.4429,-231.7253 322.3832,-189.0873 321.2615,-161.4707"/>
<polygon fill="#242424" stroke="#242424" points="324.7554,-161.2114 320.9548,-151.3218 317.7586,-161.423 324.7554,-161.2114"/>
</g>
<!-- index.js&#45;&gt;e4.js -->
<g id="edge30" class="edge">
<title>index.js&#45;&gt;e4.js</title>
<path fill="none" stroke="#242424" d="M409.9087,-344.7676C411.9426,-325.2741 415.2428,-293.457 418,-266 421.6265,-229.8858 425.6756,-188.2411 428.2764,-161.3127"/>
<polygon fill="#242424" stroke="#242424" points="431.7877,-161.3632 429.264,-151.0733 424.82,-160.6911 431.7877,-161.3632"/>
</g>
<!-- index.js&#45;&gt;e5.js -->
<g id="edge31" class="edge">
<title>index.js&#45;&gt;e5.js</title>
<path fill="none" stroke="#242424" d="M415.4545,-344.9523C431.9932,-304.9112 471.8488,-208.4188 491.5632,-160.6891"/>
<polygon fill="#242424" stroke="#242424" points="494.8659,-161.8609 495.4487,-151.2821 488.3961,-159.1886 494.8659,-161.8609"/>
</g>
<!-- index.js&#45;&gt;e6.js -->
<g id="edge32" class="edge">
<title>index.js&#45;&gt;e6.js</title>
<path fill="none" stroke="#242424" d="M421.1042,-344.9523C450.4208,-304.5762 521.4149,-206.7999 555.7578,-159.5012"/>
<polygon fill="#242424" stroke="#242424" points="558.6823,-161.4305 561.7256,-151.2821 553.0179,-157.3177 558.6823,-161.4305"/>
</g>
<!-- index.js&#45;&gt;e7.js -->
<g id="edge33" class="edge">
<title>index.js&#45;&gt;e7.js</title>
<path fill="none" stroke="#242424" d="M426.7539,-344.9523C469.0582,-304.2411 572.0027,-205.1731 620.6745,-158.3341"/>
<polygon fill="#242424" stroke="#242424" points="623.224,-160.7382 628.0025,-151.2821 618.3701,-155.6944 623.224,-160.7382"/>
</g>
<!-- index.js&#45;&gt;e8.js -->
<g id="edge34" class="edge">
<title>index.js&#45;&gt;e8.js</title>
<path fill="none" stroke="#242424" d="M433.2886,-344.8981C460.3025,-325.5136 504.3261,-293.7866 542,-266 592.9755,-228.4027 651.666,-184.099 687.0169,-157.3015"/>
<polygon fill="#242424" stroke="#242424" points="689.2004,-160.0383 695.053,-151.2066 684.9703,-154.4609 689.2004,-160.0383"/>
</g>
<!-- index.js&#45;&gt;e9.js -->
<g id="edge35" class="edge">
<title>index.js&#45;&gt;e9.js</title>
<path fill="none" stroke="#242424" d="M440.4948,-344.9634C474.8723,-325.7644 530.592,-294.3112 578,-266 641.0743,-228.3332 713.4037,-182.6261 755.4736,-155.785"/>
<polygon fill="#242424" stroke="#242424" points="757.4338,-158.686 763.9773,-150.3534 753.6657,-152.7867 757.4338,-158.686"/>
</g>
</g>
</svg>
