<?xml version="1.0" encoding="UTF-8" standalone="no"?>
<!DOCTYPE svg PUBLIC "-//W3C//DTD SVG 1.1//EN"
 "http://www.w3.org/Graphics/SVG/1.1/DTD/svg11.dtd">
<!-- Generated by graphviz version 2.40.1 (20161225.0304)
 -->
<!-- Title: G Pages: 1 -->
<svg width="834pt" height="397pt"
 viewBox="0.00 0.00 833.98 396.98" xmlns="http://www.w3.org/2000/svg" xmlns:xlink="http://www.w3.org/1999/xlink">
<g id="graph0" class="graph" transform="scale(1 1) rotate(0) translate(7.992 388.992)">
<title>G</title>
<polygon fill="#eeeeff" stroke="transparent" points="-7.992,7.992 -7.992,-388.992 825.992,-388.992 825.992,7.992 -7.992,7.992"/>
<!-- e0.js -->
<g id="node1" class="node">
<title>e0.js</title>
<polygon fill="none" stroke="#242424" stroke-width="4" points="54,-151 0,-151 0,-115 54,-115 54,-151"/>
<text text-anchor="middle" x="27" y="-130.6" font-family="Fira Code" font-size="12.00" fill="#242424">e0.js</text>
</g>
<!-- Ⓜ katsu&#45;curry/katsu&#45;curry.js -->
<g id="node2" class="node">
<title>Ⓜ katsu&#45;curry/katsu&#45;curry.js</title>
<polygon fill="none" stroke="#0c821d" stroke-width="4" points="531.4004,-36 308.5996,-36 308.5996,0 531.4004,0 531.4004,-36"/>
<text text-anchor="middle" x="420" y="-16.8" font-family="Fira Code" font-size="12.00" fill="#0c821d">Ⓜ katsu&#45;curry/katsu&#45;curry.js</text>
</g>
<!-- e0.js&#45;&gt;Ⓜ katsu&#45;curry/katsu&#45;curry.js -->
<g id="edge1" class="edge">
<title>e0.js&#45;&gt;Ⓜ katsu&#45;curry/katsu&#45;curry.js</title>
<path fill="none" stroke="#242424" d="M54.2651,-118.6672C57.1787,-117.3469 60.1274,-116.096 63,-115 149.6839,-81.9283 252.2127,-55.294 325.1035,-38.3626"/>
<polygon fill="#242424" stroke="#242424" points="326.2289,-41.695 335.1872,-36.0383 324.6566,-34.8739 326.2289,-41.695"/>
</g>
<!-- e1.js -->
<g id="node3" class="node">
<title>e1.js</title>
<polygon fill="none" stroke="#242424" stroke-width="4" points="126,-151 72,-151 72,-115 126,-115 126,-151"/>
<text text-anchor="middle" x="99" y="-130.6" font-family="Fira Code" font-size="12.00" fill="#242424">e1.js</text>
</g>
<!-- e1.js&#45;&gt;Ⓜ katsu&#45;curry/katsu&#45;curry.js -->
<g id="edge2" class="edge">
<title>e1.js&#45;&gt;Ⓜ katsu&#45;curry/katsu&#45;curry.js</title>
<path fill="none" stroke="#242424" d="M126.3387,-118.8515C129.238,-117.4953 132.1632,-116.1855 135,-115 206.6861,-85.0416 291.2151,-57.1691 349.5015,-39.0612"/>
<polygon fill="#242424" stroke="#242424" points="350.826,-42.3153 359.3463,-36.0181 348.7586,-35.6275 350.826,-42.3153"/>
</g>
<!-- e10.js -->
<g id="node4" class="node">
<title>e10.js</title>
<polygon fill="none" stroke="#242424" stroke-width="4" points="203.7003,-151 144.2997,-151 144.2997,-115 203.7003,-115 203.7003,-151"/>
<text text-anchor="middle" x="174" y="-130.6" font-family="Fira Code" font-size="12.00" fill="#242424">e10.js</text>
</g>
<!-- e10.js&#45;&gt;Ⓜ katsu&#45;curry/katsu&#45;curry.js -->
<g id="edge3" class="edge">
<title>e10.js&#45;&gt;Ⓜ katsu&#45;curry/katsu&#45;curry.js</title>
<path fill="none" stroke="#242424" d="M203.6733,-119.1283C245.4517,-99.5978 322.0783,-63.7764 372.0154,-40.4318"/>
<polygon fill="#242424" stroke="#242424" points="373.7447,-43.487 381.3215,-36.0814 370.7803,-37.1457 373.7447,-43.487"/>
</g>
<!-- e2.js -->
<g id="node5" class="node">
<title>e2.js</title>
<polygon fill="none" stroke="#242424" stroke-width="4" points="276,-151 222,-151 222,-115 276,-115 276,-151"/>
<text text-anchor="middle" x="249" y="-130.6" font-family="Fira Code" font-size="12.00" fill="#242424">e2.js</text>
</g>
<!-- e2.js&#45;&gt;Ⓜ katsu&#45;curry/katsu&#45;curry.js -->
<g id="edge4" class="edge">
<title>e2.js&#45;&gt;Ⓜ katsu&#45;curry/katsu&#45;curry.js</title>
<path fill="none" stroke="#242424" d="M276.0955,-114.7779C305.3631,-95.095 352.1207,-63.6498 384.3522,-41.9737"/>
<polygon fill="#242424" stroke="#242424" points="386.6865,-44.6218 393.0313,-36.1368 382.78,-38.8131 386.6865,-44.6218"/>
</g>
<!-- e3.js -->
<g id="node6" class="node">
<title>e3.js</title>
<polygon fill="none" stroke="#242424" stroke-width="4" points="348,-151 294,-151 294,-115 348,-115 348,-151"/>
<text text-anchor="middle" x="321" y="-130.6" font-family="Fira Code" font-size="12.00" fill="#242424">e3.js</text>
</g>
<!-- e3.js&#45;&gt;Ⓜ katsu&#45;curry/katsu&#45;curry.js -->
<g id="edge5" class="edge">
<title>e3.js&#45;&gt;Ⓜ katsu&#45;curry/katsu&#45;curry.js</title>
<path fill="none" stroke="#242424" d="M336.6868,-114.7779C353.1244,-95.6838 379.0909,-65.5206 397.6651,-43.9446"/>
<polygon fill="#242424" stroke="#242424" points="400.5148,-45.9989 404.3865,-36.1368 395.2098,-41.432 400.5148,-45.9989"/>
</g>
<!-- e4.js -->
<g id="node7" class="node">
<title>e4.js</title>
<polygon fill="none" stroke="#242424" stroke-width="4" points="420,-151 366,-151 366,-115 420,-115 420,-151"/>
<text text-anchor="middle" x="393" y="-130.6" font-family="Fira Code" font-size="12.00" fill="#242424">e4.js</text>
</g>
<!-- e4.js&#45;&gt;Ⓜ katsu&#45;curry/katsu&#45;curry.js -->
<g id="edge6" class="edge">
<title>e4.js&#45;&gt;Ⓜ katsu&#45;curry/katsu&#45;curry.js</title>
<path fill="none" stroke="#242424" d="M397.2782,-114.7779C401.623,-96.2726 408.4087,-67.3704 413.4344,-45.9646"/>
<polygon fill="#242424" stroke="#242424" points="416.8634,-46.6721 415.7418,-36.1368 410.0487,-45.0721 416.8634,-46.6721"/>
</g>
<!-- e5.js -->
<g id="node8" class="node">
<title>e5.js</title>
<polygon fill="none" stroke="#242424" stroke-width="4" points="530,-151 476,-151 476,-115 530,-115 530,-151"/>
<text text-anchor="middle" x="503" y="-130.6" font-family="Fira Code" font-size="12.00" fill="#242424">e5.js</text>
</g>
<!-- e5.js&#45;&gt;Ⓜ katsu&#45;curry/katsu&#45;curry.js -->
<g id="edge7" class="edge">
<title>e5.js&#45;&gt;Ⓜ katsu&#45;curry/katsu&#45;curry.js</title>
<path fill="none" stroke="#242424" d="M489.8484,-114.7779C476.1888,-95.852 454.6805,-66.0513 439.1383,-44.5169"/>
<polygon fill="#242424" stroke="#242424" points="441.7805,-42.1972 433.0901,-36.1368 436.1044,-46.2938 441.7805,-42.1972"/>
</g>
<!-- e6.js -->
<g id="node9" class="node">
<title>e6.js</title>
<polygon fill="none" stroke="#242424" stroke-width="4" points="602,-151 548,-151 548,-115 602,-115 602,-151"/>
<text text-anchor="middle" x="575" y="-130.6" font-family="Fira Code" font-size="12.00" fill="#242424">e6.js</text>
</g>
<!-- e6.js&#45;&gt;Ⓜ katsu&#45;curry/katsu&#45;curry.js -->
<g id="edge8" class="edge">
<title>e6.js&#45;&gt;Ⓜ katsu&#45;curry/katsu&#45;curry.js</title>
<path fill="none" stroke="#242424" d="M550.4398,-114.7779C524.024,-95.1791 481.89,-63.9184 452.6876,-42.2521"/>
<polygon fill="#242424" stroke="#242424" points="454.5618,-39.2845 444.4453,-36.1368 450.3908,-44.9062 454.5618,-39.2845"/>
</g>
<!-- e7.js -->
<g id="node10" class="node">
<title>e7.js</title>
<polygon fill="none" stroke="#242424" stroke-width="4" points="674,-151 620,-151 620,-115 674,-115 674,-151"/>
<text text-anchor="middle" x="647" y="-130.6" font-family="Fira Code" font-size="12.00" fill="#242424">e7.js</text>
</g>
<!-- e7.js&#45;&gt;Ⓜ katsu&#45;curry/katsu&#45;curry.js -->
<g id="edge9" class="edge">
<title>e7.js&#45;&gt;Ⓜ katsu&#45;curry/katsu&#45;curry.js</title>
<path fill="none" stroke="#242424" d="M619.6185,-119.1283C581.2272,-99.679 510.9461,-64.074 464.8546,-40.7237"/>
<polygon fill="#242424" stroke="#242424" points="466.1934,-37.4785 455.6911,-36.0814 463.0299,-43.7229 466.1934,-37.4785"/>
</g>
<!-- e8.js -->
<g id="node11" class="node">
<title>e8.js</title>
<polygon fill="none" stroke="#242424" stroke-width="4" points="746,-151 692,-151 692,-115 746,-115 746,-151"/>
<text text-anchor="middle" x="719" y="-130.6" font-family="Fira Code" font-size="12.00" fill="#242424">e8.js</text>
</g>
<!-- e8.js&#45;&gt;Ⓜ katsu&#45;curry/katsu&#45;curry.js -->
<g id="edge10" class="edge">
<title>e8.js&#45;&gt;Ⓜ katsu&#45;curry/katsu&#45;curry.js</title>
<path fill="none" stroke="#242424" d="M691.63,-118.9251C688.7368,-117.5545 685.8216,-116.2213 683,-115 616.2534,-86.1092 537.807,-57.8925 484.0683,-39.4089"/>
<polygon fill="#242424" stroke="#242424" points="484.9246,-36.0026 474.33,-36.0729 482.656,-42.6248 484.9246,-36.0026"/>
</g>
<!-- e9.js -->
<g id="node12" class="node">
<title>e9.js</title>
<polygon fill="none" stroke="#242424" stroke-width="4" points="818,-151 764,-151 764,-115 818,-115 818,-151"/>
<text text-anchor="middle" x="791" y="-130.6" font-family="Fira Code" font-size="12.00" fill="#242424">e9.js</text>
</g>
<!-- e9.js&#45;&gt;Ⓜ katsu&#45;curry/katsu&#45;curry.js -->
<g id="edge11" class="edge">
<title>e9.js&#45;&gt;Ⓜ katsu&#45;curry/katsu&#45;curry.js</title>
<path fill="none" stroke="#242424" d="M763.7161,-118.716C760.8061,-117.3862 757.8635,-116.1197 755,-115 672.6318,-82.7919 575.1976,-55.7593 506.7049,-38.4817"/>
<polygon fill="#242424" stroke="#242424" points="507.3655,-35.039 496.8147,-36.0038 505.6643,-41.8292 507.3655,-35.039"/>
</g>
<!-- eN.js -->
<g id="node13" class="node">
<title>eN.js</title>
<polygon fill="none" stroke="#242424" stroke-width="4" points="475,-266 421,-266 421,-230 475,-230 475,-266"/>
<text text-anchor="middle" x="448" y="-245.6" font-family="Fira Code" font-size="12.00" fill="#242424">eN.js</text>
</g>
<!-- eN.js&#45;&gt;e0.js -->
<g id="edge13" class="edge">
<title>eN.js&#45;&gt;e0.js</title>
<path fill="none" stroke="#242424" d="M420.7879,-243.2513C358.4023,-231.9242 200.5261,-200.7505 63.6452,-150.8564"/>
<polygon fill="#242424" stroke="#242424" points="64.8378,-147.5658 54.2445,-147.3875 62.4145,-154.133 64.8378,-147.5658"/>
</g>
<!-- eN.js&#45;&gt;Ⓜ katsu&#45;curry/katsu&#45;curry.js -->
<g id="edge12" class="edge">
<title>eN.js&#45;&gt;Ⓜ katsu&#45;curry/katsu&#45;curry.js</title>
<path fill="none" stroke="#242424" d="M445.8029,-229.9523C440.9487,-190.0788 429.2796,-94.2253 423.4441,-46.2908"/>
<polygon fill="#242424" stroke="#242424" points="426.9086,-45.7858 422.2257,-36.2821 419.9599,-46.6318 426.9086,-45.7858"/>
</g>
<!-- eN.js&#45;&gt;e1.js -->
<g id="edge14" class="edge">
<title>eN.js&#45;&gt;e1.js</title>
<path fill="none" stroke="#242424" d="M420.6882,-241.1477C367.2211,-227.3937 245.112,-194.3077 135.8266,-151.0381"/>
<polygon fill="#242424" stroke="#242424" points="136.8903,-147.694 126.3057,-147.2291 134.2901,-154.1932 136.8903,-147.694"/>
</g>
<!-- eN.js&#45;&gt;e10.js -->
<g id="edge15" class="edge">
<title>eN.js&#45;&gt;e10.js</title>
<path fill="none" stroke="#242424" d="M420.7081,-237.1569C376.7452,-219.5959 287.6216,-183.6047 213,-151 212.906,-150.9589 212.812,-150.9178 212.7178,-150.8766"/>
<polygon fill="#242424" stroke="#242424" points="214.3128,-147.7556 203.7539,-146.8847 211.4651,-154.1502 214.3128,-147.7556"/>
</g>
<!-- eN.js&#45;&gt;e2.js -->
<g id="edge16" class="edge">
<title>eN.js&#45;&gt;e2.js</title>
<path fill="none" stroke="#242424" d="M420.7472,-232.2509C385.5659,-211.92 324.2393,-176.48 285.1816,-153.909"/>
<polygon fill="#242424" stroke="#242424" points="286.6518,-150.7162 276.2423,-148.743 283.1493,-156.777 286.6518,-150.7162"/>
</g>
<!-- eN.js&#45;&gt;e3.js -->
<g id="edge17" class="edge">
<title>eN.js&#45;&gt;e3.js</title>
<path fill="none" stroke="#242424" d="M427.8765,-229.7779C406.5112,-210.4314 372.5967,-179.7214 348.7122,-158.0937"/>
<polygon fill="#242424" stroke="#242424" points="350.7913,-155.2546 341.0294,-151.1368 346.0927,-160.4435 350.7913,-155.2546"/>
</g>
<!-- eN.js&#45;&gt;e4.js -->
<g id="edge18" class="edge">
<title>eN.js&#45;&gt;e4.js</title>
<path fill="none" stroke="#242424" d="M439.2851,-229.7779C430.3543,-211.1043 416.3602,-181.844 406.096,-160.3826"/>
<polygon fill="#242424" stroke="#242424" points="409.1462,-158.6481 401.6741,-151.1368 402.8313,-161.6683 409.1462,-158.6481"/>
</g>
<!-- eN.js&#45;&gt;e5.js -->
<g id="edge19" class="edge">
<title>eN.js&#45;&gt;e5.js</title>
<path fill="none" stroke="#242424" d="M456.7149,-229.7779C465.6457,-211.1043 479.6398,-181.844 489.904,-160.3826"/>
<polygon fill="#242424" stroke="#242424" points="493.1687,-161.6683 494.3259,-151.1368 486.8538,-158.6481 493.1687,-161.6683"/>
</g>
<!-- eN.js&#45;&gt;e6.js -->
<g id="edge20" class="edge">
<title>eN.js&#45;&gt;e6.js</title>
<path fill="none" stroke="#242424" d="M468.1235,-229.7779C489.4888,-210.4314 523.4033,-179.7214 547.2878,-158.0937"/>
<polygon fill="#242424" stroke="#242424" points="549.9073,-160.4435 554.9706,-151.1368 545.2087,-155.2546 549.9073,-160.4435"/>
</g>
<!-- eN.js&#45;&gt;e7.js -->
<g id="edge21" class="edge">
<title>eN.js&#45;&gt;e7.js</title>
<path fill="none" stroke="#242424" d="M475.2528,-232.2509C510.4341,-211.92 571.7607,-176.48 610.8184,-153.909"/>
<polygon fill="#242424" stroke="#242424" points="612.8507,-156.777 619.7577,-148.743 609.3482,-150.7162 612.8507,-156.777"/>
</g>
<!-- eN.js&#45;&gt;e8.js -->
<g id="edge22" class="edge">
<title>eN.js&#45;&gt;e8.js</title>
<path fill="none" stroke="#242424" d="M475.0554,-237.568C517.4269,-221.0727 602.1061,-187.473 682.6793,-151.0033"/>
<polygon fill="#242424" stroke="#242424" points="684.3212,-154.1016 691.9741,-146.7747 681.4225,-147.7299 684.3212,-154.1016"/>
</g>
<!-- eN.js&#45;&gt;e9.js -->
<g id="edge23" class="edge">
<title>eN.js&#45;&gt;e9.js</title>
<path fill="none" stroke="#242424" d="M475.1941,-240.9618C527.8372,-227.009 647.2189,-193.7678 754.3534,-150.9784"/>
<polygon fill="#242424" stroke="#242424" points="755.7233,-154.1999 763.6878,-147.2129 753.1045,-147.7081 755.7233,-154.1999"/>
</g>
<!-- index.js -->
<g id="node14" class="node">
<title>index.js</title>
<polygon fill="none" stroke="#242424" stroke-width="4" points="456.6011,-381 383.3989,-381 383.3989,-345 456.6011,-345 456.6011,-381"/>
<text text-anchor="middle" x="420" y="-360.6" font-family="Fira Code" font-size="12.00" fill="#242424">index.js</text>
</g>
<!-- index.js&#45;&gt;e0.js -->
<g id="edge24" class="edge">
<title>index.js&#45;&gt;e0.js</title>
<path fill="none" stroke="#242424" d="M383.1674,-345.5027C344.6325,-326.8724 282.6727,-295.9964 231,-266 169.6831,-230.4051 101.1616,-184.373 61.1857,-156.8516"/>
<polygon fill="#242424" stroke="#242424" points="63.0788,-153.9056 52.8611,-151.1039 59.1015,-159.6659 63.0788,-153.9056"/>
</g>
<!-- index.js&#45;&gt;e1.js -->
<g id="edge25" class="edge">
<title>index.js&#45;&gt;e1.js</title>
<path fill="none" stroke="#242424" d="M393.0445,-344.8521C364.5282,-325.5612 318.311,-294.0331 279,-266 226.722,-228.7201 166.9323,-184.1499 131.1124,-157.2356"/>
<polygon fill="#242424" stroke="#242424" points="133.0716,-154.3296 122.9759,-151.1158 128.8639,-159.9239 133.0716,-154.3296"/>
</g>
<!-- index.js&#45;&gt;e10.js -->
<g id="edge26" class="edge">
<title>index.js&#45;&gt;e10.js</title>
<path fill="none" stroke="#242424" d="M400.6968,-344.9523C357.1535,-304.2411 251.1938,-205.1731 201.0965,-158.3341"/>
<polygon fill="#242424" stroke="#242424" points="203.2489,-155.5551 193.5539,-151.2821 198.4682,-160.6683 203.2489,-155.5551"/>
</g>
<!-- index.js&#45;&gt;e2.js -->
<g id="edge27" class="edge">
<title>index.js&#45;&gt;e2.js</title>
<path fill="none" stroke="#242424" d="M406.5819,-344.9523C376.5632,-304.5762 303.8686,-206.7999 268.7031,-159.5012"/>
<polygon fill="#242424" stroke="#242424" points="271.3676,-157.2189 262.5924,-151.2821 265.7501,-161.3955 271.3676,-157.2189"/>
</g>
<!-- index.js&#45;&gt;e3.js -->
<g id="edge28" class="edge">
<title>index.js&#45;&gt;e3.js</title>
<path fill="none" stroke="#242424" d="M412.2316,-344.9523C394.9966,-304.9112 353.4629,-208.4188 332.9184,-160.6891"/>
<polygon fill="#242424" stroke="#242424" points="336.0378,-159.0836 328.8693,-151.2821 329.6081,-161.8512 336.0378,-159.0836"/>
</g>
<!-- index.js&#45;&gt;e4.js -->
<g id="edge29" class="edge">
<title>index.js&#45;&gt;e4.js</title>
<path fill="none" stroke="#242424" d="M417.8814,-344.9523C413.2006,-305.0788 401.9482,-209.2253 396.3211,-161.2908"/>
<polygon fill="#242424" stroke="#242424" points="399.7883,-160.8058 395.1462,-151.2821 392.836,-161.622 399.7883,-160.8058"/>
</g>
<!-- index.js&#45;&gt;e5.js -->
<g id="edge30" class="edge">
<title>index.js&#45;&gt;e5.js</title>
<path fill="none" stroke="#242424" d="M435.7019,-344.6932C450.6895,-326.148 472.6224,-295.9936 484,-266 497.0727,-231.5376 501.246,-188.9436 502.5256,-161.3883"/>
<polygon fill="#242424" stroke="#242424" points="506.028,-161.3855 502.8963,-151.2641 499.0327,-161.1293 506.028,-161.3855"/>
</g>
<!-- index.js&#45;&gt;e6.js -->
<g id="edge31" class="edge">
<title>index.js&#45;&gt;e6.js</title>
<path fill="none" stroke="#242424" d="M438.0625,-344.702C456.0486,-325.9233 483.8148,-295.3769 504,-266 527.7345,-231.4575 549.5548,-188.094 562.5701,-160.4577"/>
<polygon fill="#242424" stroke="#242424" points="565.7493,-161.9216 566.7953,-151.3785 559.4028,-158.9681 565.7493,-161.9216"/>
</g>
<!-- index.js&#45;&gt;e7.js -->
<g id="edge32" class="edge">
<title>index.js&#45;&gt;e7.js</title>
<path fill="none" stroke="#242424" d="M441.9855,-344.7635C464.5003,-325.7856 500.1829,-294.8604 529,-266 564.381,-230.5658 602.3034,-186.6346 625.3398,-159.2029"/>
<polygon fill="#242424" stroke="#242424" points="628.2625,-161.1638 631.9918,-151.247 622.8923,-156.6737 628.2625,-161.1638"/>
</g>
<!-- index.js&#45;&gt;e8.js -->
<g id="edge33" class="edge">
<title>index.js&#45;&gt;e8.js</title>
<path fill="none" stroke="#242424" d="M447.6208,-344.9392C476.242,-325.9763 522.0195,-294.9482 560,-266 607.1625,-230.0535 659.4845,-185.2806 690.7852,-157.9359"/>
<polygon fill="#242424" stroke="#242424" points="693.4392,-160.2639 698.6541,-151.0414 688.8262,-154.9989 693.4392,-160.2639"/>
</g>
<!-- index.js&#45;&gt;e9.js -->
<g id="edge34" class="edge">
<title>index.js&#45;&gt;e9.js</title>
<path fill="none" stroke="#242424" d="M455.515,-344.8705C491.679,-326.1014 549.087,-295.4515 597,-266 655.2168,-230.2149 720.2199,-184.3826 758.2607,-156.9297"/>
<polygon fill="#242424" stroke="#242424" points="760.3655,-159.7269 766.4145,-151.0286 756.2615,-154.0561 760.3655,-159.7269"/>
</g>
<!-- index.js&#45;&gt;eN.js -->
<g id="edge35" class="edge">
<title>index.js&#45;&gt;eN.js</title>
<path fill="none" stroke="#242424" d="M424.4367,-344.7779C428.9423,-326.2726 435.9794,-297.3704 441.1912,-275.9646"/>
<polygon fill="#242424" stroke="#242424" points="444.619,-276.681 443.5841,-266.1368 437.8177,-275.025 444.619,-276.681"/>
</g>
</g>
</svg>
