<?xml version="1.0" encoding="UTF-8" standalone="no"?>
<!DOCTYPE svg PUBLIC "-//W3C//DTD SVG 1.1//EN"
 "http://www.w3.org/Graphics/SVG/1.1/DTD/svg11.dtd">
<!-- Generated by graphviz version 2.40.1 (20161225.0304)
 -->
<!-- Title: G Pages: 1 -->
<svg width="796pt" height="282pt"
 viewBox="0.00 0.00 795.98 281.98" xmlns="http://www.w3.org/2000/svg" xmlns:xlink="http://www.w3.org/1999/xlink">
<g id="graph0" class="graph" transform="scale(1 1) rotate(0) translate(7.992 273.992)">
<title>G</title>
<polygon fill="#eeeeff" stroke="transparent" points="-7.992,7.992 -7.992,-273.992 787.992,-273.992 787.992,7.992 -7.992,7.992"/>
<!-- e0.js -->
<g id="node1" class="node">
<title>e0.js</title>
<polygon fill="none" stroke="#242424" stroke-width="4" points="54,-151 0,-151 0,-115 54,-115 54,-151"/>
<text text-anchor="middle" x="27" y="-130.6" font-family="Fira Code" font-size="12.00" fill="#242424">e0.js</text>
</g>
<!-- katsu&#45;curry/katsu&#45;curry.js -->
<g id="node2" class="node">
<title>katsu&#45;curry/katsu&#45;curry.js</title>
<polygon fill="none" stroke="#0c821d" stroke-width="4" points="494.7001,-36 291.2999,-36 291.2999,0 494.7001,0 494.7001,-36"/>
<text text-anchor="middle" x="393" y="-15.6" font-family="Fira Code" font-size="12.00" fill="#0c821d">katsu&#45;curry/katsu&#45;curry.js</text>
</g>
<!-- e0.js&#45;&gt;katsu&#45;curry/katsu&#45;curry.js -->
<g id="edge1" class="edge">
<title>e0.js&#45;&gt;katsu&#45;curry/katsu&#45;curry.js</title>
<path fill="none" stroke="#242424" d="M54.2886,-118.7279C57.1977,-117.3958 60.1388,-116.1255 63,-115 144.3026,-83.019 240.4589,-55.9107 307.9364,-38.5512"/>
<polygon fill="#242424" stroke="#242424" points="308.857,-41.9285 317.6789,-36.0612 307.1236,-35.1465 308.857,-41.9285"/>
</g>
<!-- e1.js -->
<g id="node3" class="node">
<title>e1.js</title>
<polygon fill="none" stroke="#242424" stroke-width="4" points="126,-151 72,-151 72,-115 126,-115 126,-151"/>
<text text-anchor="middle" x="99" y="-130.6" font-family="Fira Code" font-size="12.00" fill="#242424">e1.js</text>
</g>
<!-- e1.js&#45;&gt;katsu&#45;curry/katsu&#45;curry.js -->
<g id="edge2" class="edge">
<title>e1.js&#45;&gt;katsu&#45;curry/katsu&#45;curry.js</title>
<path fill="none" stroke="#242424" d="M126.3779,-118.9433C129.2696,-117.5692 132.1822,-116.2302 135,-115 200.6446,-86.3412 277.7282,-58.0341 330.4316,-39.4652"/>
<polygon fill="#242424" stroke="#242424" points="331.7042,-42.728 339.9806,-36.1134 329.3857,-36.1231 331.7042,-42.728"/>
</g>
<!-- e10.js -->
<g id="node4" class="node">
<title>e10.js</title>
<polygon fill="none" stroke="#242424" stroke-width="4" points="203.7003,-151 144.2997,-151 144.2997,-115 203.7003,-115 203.7003,-151"/>
<text text-anchor="middle" x="174" y="-130.6" font-family="Fira Code" font-size="12.00" fill="#242424">e10.js</text>
</g>
<!-- e10.js&#45;&gt;katsu&#45;curry/katsu&#45;curry.js -->
<g id="edge3" class="edge">
<title>e10.js&#45;&gt;katsu&#45;curry/katsu&#45;curry.js</title>
<path fill="none" stroke="#242424" d="M203.9918,-117.2509C241.6443,-97.479 306.5091,-63.4176 349.5818,-40.7995"/>
<polygon fill="#242424" stroke="#242424" points="351.4656,-43.7636 358.6919,-36.0157 348.2111,-37.5661 351.4656,-43.7636"/>
</g>
<!-- e2.js -->
<g id="node5" class="node">
<title>e2.js</title>
<polygon fill="none" stroke="#242424" stroke-width="4" points="276,-151 222,-151 222,-115 276,-115 276,-151"/>
<text text-anchor="middle" x="249" y="-130.6" font-family="Fira Code" font-size="12.00" fill="#242424">e2.js</text>
</g>
<!-- e2.js&#45;&gt;katsu&#45;curry/katsu&#45;curry.js -->
<g id="edge4" class="edge">
<title>e2.js&#45;&gt;katsu&#45;curry/katsu&#45;curry.js</title>
<path fill="none" stroke="#242424" d="M271.8172,-114.7779C296.253,-95.2632 335.1665,-64.1865 362.2822,-42.5316"/>
<polygon fill="#242424" stroke="#242424" points="364.6597,-45.1121 370.2895,-36.1368 360.2914,-39.6423 364.6597,-45.1121"/>
</g>
<!-- e3.js -->
<g id="node6" class="node">
<title>e3.js</title>
<polygon fill="none" stroke="#242424" stroke-width="4" points="348,-151 294,-151 294,-115 348,-115 348,-151"/>
<text text-anchor="middle" x="321" y="-130.6" font-family="Fira Code" font-size="12.00" fill="#242424">e3.js</text>
</g>
<!-- e3.js&#45;&gt;katsu&#45;curry/katsu&#45;curry.js -->
<g id="edge5" class="edge">
<title>e3.js&#45;&gt;katsu&#45;curry/katsu&#45;curry.js</title>
<path fill="none" stroke="#242424" d="M332.4086,-114.7779C344.2052,-95.9361 362.75,-66.3159 376.218,-44.8045"/>
<polygon fill="#242424" stroke="#242424" points="379.3047,-46.47 381.6448,-36.1368 373.3716,-42.7554 379.3047,-46.47"/>
</g>
<!-- e4.js -->
<g id="node7" class="node">
<title>e4.js</title>
<polygon fill="none" stroke="#242424" stroke-width="4" points="420,-151 366,-151 366,-115 420,-115 420,-151"/>
<text text-anchor="middle" x="393" y="-130.6" font-family="Fira Code" font-size="12.00" fill="#242424">e4.js</text>
</g>
<!-- e4.js&#45;&gt;katsu&#45;curry/katsu&#45;curry.js -->
<g id="edge6" class="edge">
<title>e4.js&#45;&gt;katsu&#45;curry/katsu&#45;curry.js</title>
<path fill="none" stroke="#242424" d="M393,-114.7779C393,-96.3567 393,-67.6329 393,-46.2569"/>
<polygon fill="#242424" stroke="#242424" points="396.5001,-46.1368 393,-36.1368 389.5001,-46.1369 396.5001,-46.1368"/>
</g>
<!-- e5.js -->
<g id="node8" class="node">
<title>e5.js</title>
<polygon fill="none" stroke="#242424" stroke-width="4" points="492,-151 438,-151 438,-115 492,-115 492,-151"/>
<text text-anchor="middle" x="465" y="-130.6" font-family="Fira Code" font-size="12.00" fill="#242424">e5.js</text>
</g>
<!-- e5.js&#45;&gt;katsu&#45;curry/katsu&#45;curry.js -->
<g id="edge7" class="edge">
<title>e5.js&#45;&gt;katsu&#45;curry/katsu&#45;curry.js</title>
<path fill="none" stroke="#242424" d="M453.5914,-114.7779C441.7948,-95.9361 423.25,-66.3159 409.782,-44.8045"/>
<polygon fill="#242424" stroke="#242424" points="412.6284,-42.7554 404.3552,-36.1368 406.6953,-46.47 412.6284,-42.7554"/>
</g>
<!-- e6.js -->
<g id="node9" class="node">
<title>e6.js</title>
<polygon fill="none" stroke="#242424" stroke-width="4" points="564,-151 510,-151 510,-115 564,-115 564,-151"/>
<text text-anchor="middle" x="537" y="-130.6" font-family="Fira Code" font-size="12.00" fill="#242424">e6.js</text>
</g>
<!-- e6.js&#45;&gt;katsu&#45;curry/katsu&#45;curry.js -->
<g id="edge8" class="edge">
<title>e6.js&#45;&gt;katsu&#45;curry/katsu&#45;curry.js</title>
<path fill="none" stroke="#242424" d="M514.1828,-114.7779C489.747,-95.2632 450.8335,-64.1865 423.7178,-42.5316"/>
<polygon fill="#242424" stroke="#242424" points="425.7086,-39.6423 415.7105,-36.1368 421.3403,-45.1121 425.7086,-39.6423"/>
</g>
<!-- e7.js -->
<g id="node10" class="node">
<title>e7.js</title>
<polygon fill="none" stroke="#242424" stroke-width="4" points="636,-151 582,-151 582,-115 636,-115 636,-151"/>
<text text-anchor="middle" x="609" y="-130.6" font-family="Fira Code" font-size="12.00" fill="#242424">e7.js</text>
</g>
<!-- e7.js&#45;&gt;katsu&#45;curry/katsu&#45;curry.js -->
<g id="edge9" class="edge">
<title>e7.js&#45;&gt;katsu&#45;curry/katsu&#45;curry.js</title>
<path fill="none" stroke="#242424" d="M581.6435,-118.4352C544.8676,-98.8555 479.1075,-63.8443 435.7645,-40.7681"/>
<polygon fill="#242424" stroke="#242424" points="437.3461,-37.6451 426.8743,-36.0349 434.0564,-43.8239 437.3461,-37.6451"/>
</g>
<!-- e8.js -->
<g id="node11" class="node">
<title>e8.js</title>
<polygon fill="none" stroke="#242424" stroke-width="4" points="708,-151 654,-151 654,-115 708,-115 708,-151"/>
<text text-anchor="middle" x="681" y="-130.6" font-family="Fira Code" font-size="12.00" fill="#242424">e8.js</text>
</g>
<!-- e8.js&#45;&gt;katsu&#45;curry/katsu&#45;curry.js -->
<g id="edge10" class="edge">
<title>e8.js&#45;&gt;katsu&#45;curry/katsu&#45;curry.js</title>
<path fill="none" stroke="#242424" d="M653.6121,-118.966C650.7224,-117.5874 647.8129,-116.2412 645,-115 580.733,-86.643 505.3639,-58.2495 453.9074,-39.5774"/>
<polygon fill="#242424" stroke="#242424" points="454.8601,-36.2001 444.2658,-36.091 452.4797,-42.783 454.8601,-36.2001"/>
</g>
<!-- e9.js -->
<g id="node12" class="node">
<title>e9.js</title>
<polygon fill="none" stroke="#242424" stroke-width="4" points="780,-151 726,-151 726,-115 780,-115 780,-151"/>
<text text-anchor="middle" x="753" y="-130.6" font-family="Fira Code" font-size="12.00" fill="#242424">e9.js</text>
</g>
<!-- e9.js&#45;&gt;katsu&#45;curry/katsu&#45;curry.js -->
<g id="edge11" class="edge">
<title>e9.js&#45;&gt;katsu&#45;curry/katsu&#45;curry.js</title>
<path fill="none" stroke="#242424" d="M725.7056,-118.7427C722.7977,-117.4077 719.8584,-116.1326 717,-115 637.04,-83.3159 542.5068,-56.1326 476.2565,-38.6728"/>
<polygon fill="#242424" stroke="#242424" points="476.8435,-35.2086 466.2831,-36.0615 475.0704,-41.9803 476.8435,-35.2086"/>
</g>
<!-- index.js -->
<g id="node13" class="node">
<title>index.js</title>
<polygon fill="none" stroke="#242424" stroke-width="4" points="429.6011,-266 356.3989,-266 356.3989,-230 429.6011,-230 429.6011,-266"/>
<text text-anchor="middle" x="393" y="-245.6" font-family="Fira Code" font-size="12.00" fill="#242424">index.js</text>
</g>
<!-- index.js&#45;&gt;e0.js -->
<g id="edge12" class="edge">
<title>index.js&#45;&gt;e0.js</title>
<path fill="none" stroke="#242424" d="M356.1553,-239.4482C296.164,-225.0367 173.8238,-193.6136 63.8693,-151.0243"/>
<polygon fill="#242424" stroke="#242424" points="64.8763,-147.6599 54.2886,-147.2721 62.3236,-154.1778 64.8763,-147.6599"/>
</g>
<!-- index.js&#45;&gt;e1.js -->
<g id="edge13" class="edge">
<title>index.js&#45;&gt;e1.js</title>
<path fill="none" stroke="#242424" d="M356.2043,-235.5232C307.5393,-218.7269 219.0923,-187.1791 135.7293,-151.1293"/>
<polygon fill="#242424" stroke="#242424" points="136.9437,-147.8407 126.3779,-147.0567 134.1486,-154.2585 136.9437,-147.8407"/>
</g>
<!-- index.js&#45;&gt;e10.js -->
<g id="edge14" class="edge">
<title>index.js&#45;&gt;e10.js</title>
<path fill="none" stroke="#242424" d="M358.2988,-229.7779C318.6051,-208.9342 253.7921,-174.9 212.5535,-153.245"/>
<polygon fill="#242424" stroke="#242424" points="214.1033,-150.1056 203.6225,-148.5552 210.8488,-156.3031 214.1033,-150.1056"/>
</g>
<!-- index.js&#45;&gt;e2.js -->
<g id="edge15" class="edge">
<title>index.js&#45;&gt;e2.js</title>
<path fill="none" stroke="#242424" d="M370.1828,-229.7779C345.747,-210.2632 306.8335,-179.1865 279.7178,-157.5316"/>
<polygon fill="#242424" stroke="#242424" points="281.7086,-154.6423 271.7105,-151.1368 277.3403,-160.1121 281.7086,-154.6423"/>
</g>
<!-- index.js&#45;&gt;e3.js -->
<g id="edge16" class="edge">
<title>index.js&#45;&gt;e3.js</title>
<path fill="none" stroke="#242424" d="M381.5914,-229.7779C369.7948,-210.9361 351.25,-181.3159 337.782,-159.8045"/>
<polygon fill="#242424" stroke="#242424" points="340.6284,-157.7554 332.3552,-151.1368 334.6953,-161.47 340.6284,-157.7554"/>
</g>
<!-- index.js&#45;&gt;e4.js -->
<g id="edge17" class="edge">
<title>index.js&#45;&gt;e4.js</title>
<path fill="none" stroke="#242424" d="M393,-229.7779C393,-211.3567 393,-182.6329 393,-161.2569"/>
<polygon fill="#242424" stroke="#242424" points="396.5001,-161.1368 393,-151.1368 389.5001,-161.1369 396.5001,-161.1368"/>
</g>
<!-- index.js&#45;&gt;e5.js -->
<g id="edge18" class="edge">
<title>index.js&#45;&gt;e5.js</title>
<path fill="none" stroke="#242424" d="M404.4086,-229.7779C416.2052,-210.9361 434.75,-181.3159 448.218,-159.8045"/>
<polygon fill="#242424" stroke="#242424" points="451.3047,-161.47 453.6448,-151.1368 445.3716,-157.7554 451.3047,-161.47"/>
</g>
<!-- index.js&#45;&gt;e6.js -->
<g id="edge19" class="edge">
<title>index.js&#45;&gt;e6.js</title>
<path fill="none" stroke="#242424" d="M415.8172,-229.7779C440.253,-210.2632 479.1665,-179.1865 506.2822,-157.5316"/>
<polygon fill="#242424" stroke="#242424" points="508.6597,-160.1121 514.2895,-151.1368 504.2914,-154.6423 508.6597,-160.1121"/>
</g>
<!-- index.js&#45;&gt;e7.js -->
<g id="edge20" class="edge">
<title>index.js&#45;&gt;e7.js</title>
<path fill="none" stroke="#242424" d="M427.2258,-229.7779C466.9557,-208.6254 532.2001,-173.8888 572.7666,-152.2909"/>
<polygon fill="#242424" stroke="#242424" points="574.5913,-155.2846 581.7734,-147.4956 571.3016,-149.1058 574.5913,-155.2846"/>
</g>
<!-- index.js&#45;&gt;e8.js -->
<g id="edge21" class="edge">
<title>index.js&#45;&gt;e8.js</title>
<path fill="none" stroke="#242424" d="M429.7542,-235.1101C477.3919,-218.1295 563.0684,-186.6597 644.2486,-151.1563"/>
<polygon fill="#242424" stroke="#242424" points="645.8701,-154.2667 653.6121,-147.034 643.0495,-147.86 645.8701,-154.2667"/>
</g>
<!-- index.js&#45;&gt;e9.js -->
<g id="edge22" class="edge">
<title>index.js&#45;&gt;e9.js</title>
<path fill="none" stroke="#242424" d="M429.6524,-239.233C488.7155,-224.6332 608.4371,-193.0856 716.3059,-150.9669"/>
<polygon fill="#242424" stroke="#242424" points="717.6886,-154.1839 725.7056,-147.2573 715.1189,-147.6726 717.6886,-154.1839"/>
</g>
</g>
</svg>
