<svg id="entrust" xmlns="http://www.w3.org/2000/svg" width="245.8" height="73.9" viewBox="-263.8 464.1 245.8 73.9"><style>.st0{fill:#FF0000;}</style><path class="st0" d="M-244.4 478.2c10.1 0 14.3 9 14.3 20.8v3.2h-20.3c.1 5.9 2.6 10.3 7.9 10.3 2.2 0 4.8-1.5 6.6-4l4.6 5.2c-3.1 4.1-7.6 6.4-12.2 6.4-10.4 0-15.9-8.8-15.9-21 0-11.5 4.9-20.9 15-20.9zm-6 17.5h11.3c0-4.5-1-9.9-5.5-9.9s-5.8 5.7-5.8 9.9zM-205.8 490.7c0-2.8-1-4.2-3.1-4.2-2.4 0-4.5 2.7-5.4 5.2v27.5h-9.4v-40h9.4v5.2c1.6-3.2 5.7-6.2 9.4-6.2 6 0 8.5 3.6 8.5 9.1v31.9h-9.4v-28.5z"/><path d="M-188.2 501c0-12.1 2.8-22.9 8-33.1l6.2 2.7c-3.1 9.2-5 18.8-5 30.5 0 11.5 2 21.2 5 30.4l-6.2 2.8c-5.3-10.4-8-21.3-8-33.3zM-166.6 510v-22.7h-3.7v-8.1h3.7v-10.9h9.4v10.9h5.1v8.1h-5.1v20.9c0 2.5.6 3.7 2.2 3.7.9 0 1.7-.4 2.2-1.1l1.9 7.3c-1.4 1.2-3.6 2.1-6.5 2.1-6.6 0-9.2-3.3-9.2-10.2zM-145.7 479.2h9.4v5.5c1.6-3.6 5.5-6.5 8.9-6.5v9.2c-.6-.2-1.2-.3-1.8-.3-2.7 0-5.5 2.3-7.1 5.1v26.9h-9.4v-39.9zM-103.9 514.1c-1.6 3.2-5.5 6-9.4 6-6 0-8.4-3.3-8.4-9v-32h9.4v28.6c0 2.7 1 4.1 3.1 4.1 2.4 0 4.5-2.5 5.4-5.1V479h9.4v40h-9.4l-.1-4.9zM-85 508.5c2.2 2.4 5.1 4.3 8.3 4.3 3 0 5.1-1.7 5-4.3 0-2.6-2.6-4-5.6-5.5-4.5-2.3-10.2-5-10.2-13.4 0-6.1 4.6-11.3 12.7-11.3 4.6 0 8.8 1.8 11.8 4.7l-3.8 6.3c-1.6-1.9-4.5-3.6-7.7-3.6-2.6 0-4.3 1.7-4.3 3.7 0 2.4 2.4 3.7 5.4 5.2 4.6 2.3 10.6 5.1 10.6 13.7 0 7-5.5 11.9-13.1 11.9-6 0-10.4-2.1-13-5.2l3.9-6.5zM-55.3 510v-22.7H-59v-8.1h3.7v-10.9h9.4v10.9h5.1v8.1h-5.1v20.9c0 2.5.6 3.7 2.2 3.7.9 0 1.7-.4 2.2-1.1l1.9 7.3c-1.4 1.2-3.6 2.1-6.5 2.1-6.6 0-9.2-3.4-9.2-10.2zM-36.6 470.5l6.1-2.7c5.3 10.2 8.1 21.1 8.1 33.1 0 12.1-2.8 23-8.1 33.2l-6.1-2.8c3.1-9.1 4.9-18.8 4.9-30.4 0-11.6-1.9-21.2-4.9-30.4z"/></svg>